<svg width="172" height="30" viewBox="0 0 172 30" fill="none" xmlns="http://www.w3.org/2000/svg">
<g clip-path="url(#clip0_30_46149)">
<path d="M166.222 13.0226C167.48 13.0226 168.497 12.0026 168.497 10.7446C168.497 9.4865 167.48 8.46667 166.222 8.46667C164.965 8.46667 163.947 9.4865 163.947 10.7446C163.947 12.0026 164.965 13.0226 166.222 13.0226Z" fill="#0B3B2D"/>
<path d="M46.4469 21.6812C45.4349 21.6812 44.5022 21.5226 43.6487 21.2052C42.8074 20.8757 42.0697 20.4119 41.4357 19.8138C40.8138 19.2158 40.3262 18.514 39.9725 17.7084C39.6312 16.9029 39.4604 16.018 39.4604 15.0538C39.4604 14.0897 39.6312 13.2047 39.9725 12.3992C40.3262 11.5937 40.82 10.8919 41.454 10.2938C42.088 9.69577 42.8318 9.23812 43.6853 8.92073C44.5388 8.5912 45.4776 8.42643 46.5018 8.42643C47.6358 8.42643 48.6538 8.61565 49.5561 8.99396C50.4706 9.37233 51.2387 9.92157 51.8606 10.6417L49.9585 12.3992C49.4951 11.9111 48.9892 11.551 48.4405 11.3191C47.8918 11.075 47.2944 10.9529 46.6482 10.9529C46.0263 10.9529 45.4594 11.0505 44.9473 11.2458C44.4352 11.4411 43.99 11.7218 43.6121 12.088C43.2464 12.4541 42.9598 12.8874 42.7525 13.3878C42.5575 13.8883 42.4599 14.4436 42.4599 15.0538C42.4599 15.6519 42.5575 16.2011 42.7525 16.7016C42.9598 17.2019 43.2464 17.6414 43.6121 18.0197C43.99 18.3858 44.429 18.6666 44.929 18.8618C45.4411 19.0571 46.0019 19.1548 46.6116 19.1548C47.1968 19.1548 47.7638 19.0632 48.3125 18.8801C48.8733 18.6849 49.4159 18.3614 49.9402 17.9098L51.6228 20.0518C50.9279 20.5766 50.117 20.9794 49.1904 21.2601C48.2759 21.5409 47.3614 21.6812 46.4469 21.6812ZM48.916 19.6674V14.8524H51.6228V20.0518L48.916 19.6674ZM53.4423 21.4616V7.8772H56.2954V21.4616H53.4423ZM62.8939 21.608C61.8453 21.608 60.9126 21.3883 60.0956 20.9489C59.2909 20.5096 58.6508 19.9115 58.1753 19.1548C57.7119 18.3858 57.4803 17.5132 57.4803 16.5368C57.4803 15.5481 57.7119 14.6755 58.1753 13.9188C58.6508 13.1498 59.2909 12.5518 60.0956 12.1246C60.9126 11.6852 61.8453 11.4656 62.8939 11.4656C63.9303 11.4656 64.857 11.6852 65.674 12.1246C66.491 12.5518 67.1306 13.1437 67.5942 13.9004C68.0577 14.6572 68.2892 15.5359 68.2892 16.5368C68.2892 17.5132 68.0577 18.3858 67.5942 19.1548C67.1306 19.9115 66.491 20.5096 65.674 20.9489C64.857 21.3883 63.9303 21.608 62.8939 21.608ZM62.8939 19.2646C63.3695 19.2646 63.7962 19.1547 64.1742 18.9351C64.5521 18.7154 64.8508 18.4041 65.0704 18.0014C65.2898 17.5864 65.3995 17.0982 65.3995 16.5368C65.3995 15.9631 65.2898 15.4749 65.0704 15.0721C64.8508 14.6694 64.5521 14.3581 64.1742 14.1384C63.7962 13.9187 63.3695 13.8089 62.8939 13.8089C62.4184 13.8089 61.9916 13.9187 61.6137 14.1384C61.2357 14.3581 60.9308 14.6694 60.6992 15.0721C60.4797 15.4749 60.37 15.9631 60.37 16.5368C60.37 17.0982 60.4797 17.5864 60.6992 18.0014C60.9308 18.4041 61.2357 18.7154 61.6137 18.9351C61.9916 19.1547 62.4184 19.2646 62.8939 19.2646ZM75.2811 21.608C74.415 21.608 73.6714 21.4249 73.0498 21.0587C72.4276 20.6926 71.9522 20.1372 71.6231 19.3928C71.2939 18.636 71.129 17.684 71.129 16.5368C71.129 15.3772 71.2995 14.4252 71.6411 13.6807C71.9945 12.9363 72.4823 12.3809 73.1046 12.0147C73.7262 11.6486 74.4517 11.4656 75.2811 11.4656C76.2076 11.4656 77.0364 11.673 77.7681 12.088C78.5117 12.5029 79.0972 13.0887 79.524 13.8456C79.9627 14.6023 80.1823 15.4994 80.1823 16.5368C80.1823 17.562 79.9627 18.4529 79.524 19.2097C79.0972 19.9664 78.5117 20.5583 77.7681 20.9856C77.0364 21.4005 76.2076 21.608 75.2811 21.608ZM69.4646 21.4616V7.8772H72.3181V13.6076L72.1351 16.5184L72.1899 19.4477V21.4616H69.4646ZM74.7871 19.2646C75.2624 19.2646 75.6831 19.1547 76.0489 18.9351C76.4272 18.7154 76.7259 18.4041 76.9449 18.0014C77.177 17.5864 77.2927 17.0982 77.2927 16.5368C77.2927 15.9631 77.177 15.4749 76.9449 15.0721C76.7259 14.6694 76.4272 14.3581 76.0489 14.1384C75.6831 13.9187 75.2624 13.8089 74.7871 13.8089C74.3117 13.8089 73.8848 13.9187 73.5065 14.1384C73.1288 14.3581 72.8302 14.6694 72.6105 15.0721C72.3909 15.4749 72.2814 15.9631 72.2814 16.5368C72.2814 17.0982 72.3909 17.5864 72.6105 18.0014C72.8302 18.4041 73.1288 18.7154 73.5065 18.9351C73.8848 19.1547 74.3117 19.2646 74.7871 19.2646ZM87.2352 21.4616V19.5392L87.0523 19.1181V15.6763C87.0523 15.066 86.8638 14.59 86.4855 14.2483C86.1196 13.9066 85.5527 13.7357 84.7849 13.7357C84.2604 13.7357 83.7421 13.8211 83.23 13.992C82.7303 14.1506 82.3035 14.3703 81.9501 14.6511L80.9259 12.6556C81.4623 12.2772 82.1081 11.9843 82.8641 11.7767C83.6201 11.5693 84.3886 11.4656 85.1688 11.4656C86.6684 11.4656 87.8332 11.8195 88.662 12.5274C89.4914 13.2352 89.9058 14.3398 89.9058 15.8411V21.4616H87.2352ZM84.2361 21.608C83.4677 21.608 82.8094 21.4798 82.2606 21.2236C81.7124 20.9551 81.2918 20.5949 80.9987 20.1434C80.7063 19.6918 80.56 19.1852 80.56 18.6238C80.56 18.038 80.7 17.5254 80.9807 17.086C81.2731 16.6466 81.7304 16.3049 82.352 16.0607C82.9743 15.8044 83.785 15.6763 84.7849 15.6763H87.4001V17.3423H85.0954C84.4247 17.3423 83.9617 17.4521 83.7054 17.6718C83.4615 17.8916 83.3401 18.1661 83.3401 18.4957C83.3401 18.8618 83.4801 19.1548 83.7607 19.3744C84.0532 19.5819 84.4495 19.6857 84.9492 19.6857C85.4246 19.6857 85.8514 19.5758 86.2297 19.3561C86.6074 19.1243 86.8818 18.7886 87.0523 18.3492L87.4916 19.6674C87.2844 20.302 86.9061 20.7841 86.3579 21.1137C85.8091 21.4432 85.1016 21.608 84.2361 21.608ZM91.7563 21.4616V7.8772H94.6092V21.4616H91.7563ZM96.7272 21.4616V8.64614H99.1775L106.731 17.8732H105.542V8.64614H108.469V21.4616H106.036L98.4645 12.2344H99.6535V21.4616H96.7272ZM115.247 21.608C114.198 21.608 113.265 21.3883 112.449 20.9489C111.644 20.5096 111.004 19.9115 110.529 19.1548C110.065 18.3858 109.834 17.5132 109.834 16.5368C109.834 15.5481 110.065 14.6755 110.529 13.9188C111.004 13.1498 111.644 12.5518 112.449 12.1246C113.265 11.6852 114.198 11.4656 115.247 11.4656C116.283 11.4656 117.211 11.6852 118.027 12.1246C118.843 12.5518 119.484 13.1437 119.947 13.9004C120.411 14.6572 120.642 15.5359 120.642 16.5368C120.642 17.5132 120.411 18.3858 119.947 19.1548C119.484 19.9115 118.843 20.5096 118.027 20.9489C117.211 21.3883 116.283 21.608 115.247 21.608ZM115.247 19.2646C115.722 19.2646 116.15 19.1547 116.528 18.9351C116.905 18.7154 117.204 18.4041 117.424 18.0014C117.643 17.5864 117.753 17.0982 117.753 16.5368C117.753 15.9631 117.643 15.4749 117.424 15.0721C117.204 14.6694 116.905 14.3581 116.528 14.1384C116.15 13.9187 115.722 13.8089 115.247 13.8089C114.772 13.8089 114.344 13.9187 113.967 14.1384C113.589 14.3581 113.284 14.6694 113.052 15.0721C112.833 15.4749 112.723 15.9631 112.723 16.5368C112.723 17.0982 112.833 17.5864 113.052 18.0014C113.284 18.4041 113.589 18.7154 113.967 18.9351C114.344 19.1547 114.772 19.2646 115.247 19.2646ZM134.42 11.4656C135.2 11.4656 135.888 11.6242 136.487 11.9416C137.095 12.2466 137.571 12.7226 137.913 13.3696C138.266 14.0042 138.443 14.8219 138.443 15.8227V21.4616H135.59V16.2621C135.59 15.4687 135.426 14.8829 135.097 14.5046C134.767 14.1263 134.303 13.9371 133.707 13.9371C133.291 13.9371 132.92 14.0348 132.591 14.23C132.262 14.4131 132.005 14.6938 131.822 15.0721C131.64 15.4505 131.548 15.9326 131.548 16.5184V21.4616H128.695V16.2621C128.695 15.4687 128.53 14.8829 128.201 14.5046C127.884 14.1263 127.426 13.9371 126.83 13.9371C126.414 13.9371 126.043 14.0348 125.714 14.23C125.385 14.4131 125.129 14.6938 124.946 15.0721C124.763 15.4505 124.671 15.9326 124.671 16.5184V21.4616H121.818V11.612H124.544V14.3032L124.032 13.516C124.373 12.8448 124.854 12.3382 125.476 11.9964C126.11 11.6425 126.83 11.4656 127.634 11.4656C128.536 11.4656 129.322 11.6974 129.994 12.1612C130.676 12.6127 131.127 13.3085 131.347 14.2483L130.341 13.9737C130.67 13.2047 131.195 12.5945 131.914 12.1429C132.646 11.6913 133.481 11.4656 134.42 11.4656ZM146.305 21.4616V19.5392L146.122 19.1181V15.6763C146.122 15.066 145.933 14.59 145.555 14.2483C145.189 13.9066 144.622 13.7357 143.854 13.7357C143.329 13.7357 142.812 13.8211 142.299 13.992C141.799 14.1506 141.372 14.3703 141.019 14.6511L139.995 12.6556C140.53 12.2772 141.177 11.9843 141.934 11.7767C142.688 11.5693 143.457 11.4656 144.238 11.4656C145.738 11.4656 146.901 11.8195 147.731 12.5274C148.56 13.2352 148.975 14.3398 148.975 15.8411V21.4616H146.305ZM143.305 21.608C142.537 21.608 141.879 21.4798 141.33 21.2236C140.781 20.9551 140.361 20.5949 140.068 20.1434C139.775 19.6918 139.629 19.1852 139.629 18.6238C139.629 18.038 139.769 17.5254 140.049 17.086C140.342 16.6466 140.799 16.3049 141.421 16.0607C142.043 15.8044 142.853 15.6763 143.854 15.6763H146.469V17.3423H144.165C143.493 17.3423 143.031 17.4521 142.775 17.6718C142.53 17.8916 142.409 18.1661 142.409 18.4957C142.409 18.8618 142.549 19.1548 142.83 19.3744C143.122 19.5819 143.518 19.6857 144.019 19.6857C144.494 19.6857 144.92 19.5758 145.299 19.3561C145.676 19.1243 145.951 18.7886 146.122 18.3492L146.56 19.6674C146.353 20.302 145.976 20.7841 145.427 21.1137C144.878 21.4432 144.17 21.608 143.305 21.608ZM155.121 21.608C154.194 21.608 153.36 21.4005 152.615 20.9856C151.872 20.5583 151.281 19.9664 150.841 19.2097C150.415 18.4529 150.201 17.562 150.201 16.5368C150.201 15.4994 150.415 14.6023 150.841 13.8456C151.281 13.0887 151.872 12.5029 152.615 12.088C153.36 11.673 154.194 11.4656 155.121 11.4656C155.95 11.4656 156.676 11.6486 157.297 12.0147C157.919 12.3809 158.401 12.9363 158.742 13.6807C159.084 14.4252 159.254 15.3772 159.254 16.5368C159.254 17.684 159.09 18.636 158.76 19.3928C158.431 20.1372 157.956 20.6926 157.334 21.0587C156.725 21.4249 155.987 21.608 155.121 21.608ZM155.615 19.2646C156.079 19.2646 156.499 19.1547 156.877 18.9351C157.256 18.7154 157.554 18.4041 157.773 18.0014C158.006 17.5864 158.121 17.0982 158.121 16.5368C158.121 15.9631 158.006 15.4749 157.773 15.0721C157.554 14.6694 157.256 14.3581 156.877 14.1384C156.499 13.9187 156.079 13.8089 155.615 13.8089C155.14 13.8089 154.713 13.9187 154.334 14.1384C153.957 14.3581 153.652 14.6694 153.42 15.0721C153.201 15.4749 153.091 15.9631 153.091 16.5368C153.091 17.0982 153.201 17.5864 153.42 18.0014C153.652 18.4041 153.957 18.7154 154.334 18.9351C154.713 19.1547 155.14 19.2646 155.615 19.2646ZM158.193 21.4616V19.4477L158.248 16.5184L158.066 13.6076V7.8772H160.919V21.4616H158.193Z" fill="#0B3B2D"/>
<path fill-rule="evenodd" clip-rule="evenodd" d="M17.2306 1C24.9548 1 31.2165 7.26802 31.2165 15C31.2165 22.732 24.9548 29 17.2306 29C9.50636 29 3.24463 22.732 3.24463 15C3.24463 7.26802 9.50636 1 17.2306 1ZM16.725 2.04761C15.1296 2.27238 13.6103 3.55575 12.4309 5.70218C12.0888 6.32478 11.7801 7.01262 11.5111 7.75534C13.1148 7.35189 14.8763 7.11409 16.725 7.07731V2.04761ZM10.3291 8.09159C10.6636 7.04071 11.0727 6.07388 11.545 5.21445C12.1297 4.15041 12.8235 3.23157 13.6052 2.52584C9.35425 3.76166 6.00352 7.11575 4.76894 11.371C5.47395 10.5884 6.39188 9.89392 7.45486 9.30872C8.31342 8.83602 9.27926 8.42635 10.3291 8.09159ZM9.99313 9.27475C9.59018 10.88 9.35259 12.6434 9.31584 14.4939H4.29119C4.51574 12.8968 5.79782 11.376 7.94209 10.1955C8.56407 9.85304 9.25122 9.54404 9.99313 9.27475ZM10.3271 14.4939C10.3689 12.4744 10.6593 10.5784 11.1398 8.90316C12.8134 8.42212 14.7076 8.13135 16.725 8.08954V10.2756C15.9724 12.2043 14.4373 13.7409 12.5104 14.4939H10.3271ZM9.31584 15.5061H4.29119C4.51574 17.1032 5.79782 18.6239 7.94209 19.8045C8.56407 20.147 9.25122 20.4559 9.99313 20.7253C9.59018 19.12 9.35259 17.3566 9.31584 15.5061ZM11.1398 21.0969C10.6593 19.4216 10.3689 17.5256 10.3271 15.5061H12.5104C14.4373 16.2591 15.9725 17.7957 16.725 19.7245V21.9105C14.7076 21.8687 12.8134 21.5778 11.1398 21.0969ZM10.3291 21.9085C9.27926 21.5737 8.31342 21.164 7.45486 20.6913C6.39188 20.1061 5.47395 19.4115 4.76894 18.629C6.00352 22.8842 9.35425 26.2383 13.6052 27.4741C12.8235 26.7684 12.1297 25.8496 11.545 24.7854C11.0727 23.9261 10.6636 22.9593 10.3291 21.9085ZM16.725 27.9524C15.1296 27.7276 13.6103 26.4442 12.4309 24.2978C12.0888 23.6753 11.7801 22.9873 11.5111 22.2447C13.1148 22.6481 14.8763 22.8859 16.725 22.9227V27.9524ZM20.8559 27.4741C21.6376 26.7684 22.3316 25.8496 22.9162 24.7854C23.3884 23.9261 23.7976 22.9593 24.1321 21.9085C25.1819 21.5737 26.1477 21.164 27.0063 20.6913C28.0692 20.1061 28.9873 19.4115 29.6922 18.629C28.4576 22.8842 25.1069 26.2383 20.8559 27.4741ZM22.9501 22.2447C22.681 22.9873 22.3724 23.6753 22.0303 24.2978C20.851 26.4442 19.3317 27.7276 17.7361 27.9524V22.9227C19.5849 22.8859 21.3464 22.6481 22.9501 22.2447ZM24.468 20.7253C25.2099 20.4559 25.8971 20.147 26.5191 19.8045C28.6633 18.6239 29.9454 17.1032 30.1699 15.5061H25.1454C25.1085 17.3566 24.871 19.12 24.468 20.7253ZM24.1341 15.5061C24.0924 17.5256 23.8018 19.4216 23.3214 21.0969C21.6478 21.5778 19.7536 21.8687 17.7361 21.9105V19.7261C18.4885 17.7966 20.0239 16.2594 21.9514 15.5061H24.1341ZM25.1454 14.4939H30.1699C29.9454 12.8968 28.6633 11.376 26.5191 10.1955C25.8971 9.85304 25.2099 9.54404 24.468 9.27475C24.871 10.88 25.1085 12.6434 25.1454 14.4939ZM23.3214 8.90316C23.8018 10.5784 24.0924 12.4744 24.1341 14.4939H21.9514C20.0239 13.7406 18.4885 12.2034 17.7361 10.274V8.08954C19.7536 8.13135 21.6478 8.42212 23.3214 8.90316ZM24.1321 8.09159C25.1819 8.42635 26.1477 8.83602 27.0063 9.30872C28.0692 9.89392 28.9873 10.5884 29.6922 11.371C28.4576 7.11575 25.1069 3.76166 20.8559 2.52584C21.6376 3.23157 22.3316 4.15041 22.9162 5.21445C23.3884 6.07388 23.7976 7.04071 24.1321 8.09159ZM17.7361 2.04761C19.3317 2.27238 20.851 3.55575 22.0303 5.70218C22.3724 6.32479 22.681 7.01262 22.9501 7.75534C21.3464 7.35189 19.5849 7.11409 17.7361 7.07731V2.04761Z" fill="#0B3B2D"/>
</g>
<defs>
<clipPath id="clip0_30_46149">
<rect width="165.511" height="28" fill="white" transform="translate(3.24463 1)"/>
</clipPath>
</defs>
</svg>
