<svg width="88" height="88" viewBox="0 0 88 88" fill="none" xmlns="http://www.w3.org/2000/svg">
<mask id="mask0_933_22229" style="mask-type:alpha" maskUnits="userSpaceOnUse" x="5" y="13" width="62" height="62">
<path d="M66.2139 44.0006C66.2139 60.6874 52.6866 74.2146 35.9999 74.2146C19.3131 74.2146 5.78586 60.6874 5.78586 44.0006C5.78586 27.3139 19.3131 13.7866 35.9999 13.7866C52.6866 13.7866 66.2139 27.3139 66.2139 44.0006Z" fill="#70ACDE"/>
</mask>
<g mask="url(#mask0_933_22229)">
<circle cx="35.9261" cy="44.1706" r="34.5324" fill="#FF8F8F"/>
<ellipse cx="30.8823" cy="39.454" rx="2.03618" ry="5.66299" fill="white"/>
<path d="M32.8476 39.8625C32.8476 38.108 32.455 36.623 31.9251 35.6517C31.6615 35.1687 31.3997 34.8774 31.2015 34.7237C31.0167 34.5805 30.9275 34.5834 30.9187 34.5834C30.9099 34.5834 30.8207 34.5805 30.636 34.7237C30.4378 34.8774 30.1759 35.1687 29.9124 35.6517C29.3825 36.623 28.9898 38.108 28.9898 39.8625C28.9898 41.617 29.3825 43.102 29.9124 44.0733C30.1759 44.5563 30.4378 44.8476 30.636 45.0013C30.8208 45.1445 30.9099 45.1416 30.9187 45.1416V47.2347L30.7116 47.2252C28.6551 47.034 27.0064 44.0115 26.9022 40.242L26.8967 39.8625C26.8967 35.7909 28.6975 32.4902 30.9187 32.4902C33.14 32.4902 34.9407 35.7909 34.9407 39.8625L34.9353 40.242C34.8275 44.1373 33.0706 47.2347 30.9187 47.2347V45.1416C30.9275 45.1416 31.0167 45.1445 31.2015 45.0013C31.3997 44.8476 31.6615 44.5563 31.9251 44.0733C32.455 43.102 32.8476 41.617 32.8476 39.8625Z" fill="#1F1F22"/>
<path d="M27.0636 31.119C27.0636 32.0663 26.2957 32.8342 25.3484 32.8342C24.4011 32.8342 23.6332 32.0663 23.6332 31.119C23.6332 30.1717 24.4011 29.4038 25.3484 29.4038C26.2957 29.4038 27.0636 30.1717 27.0636 31.119Z" fill="#1F1F22"/>
<path d="M38.535 31.119C38.535 32.0663 37.7671 32.8342 36.8198 32.8342C35.8725 32.8342 35.1046 32.0663 35.1046 31.119C35.1046 30.1717 35.8725 29.4038 36.8198 29.4038C37.7671 29.4038 38.535 30.1717 38.535 31.119Z" fill="#1F1F22"/>
</g>
<path d="M80.0238 21.5983L75.0185 21.0682C74.4776 21.011 73.9767 21.1233 73.5916 21.348C72.6438 21.9008 72.8223 23.261 72.7717 24.3571L72.0164 40.7144C71.9657 41.8105 71.899 43.054 72.7348 43.7649C73.7228 44.6052 75.402 44.8164 76.587 44.2534C77.6068 43.769 77.8727 42.5173 78.1105 41.4136L81.4644 25.8448C81.7438 24.5477 82.4904 22.9195 81.4456 22.1015C81.1275 21.8525 80.6647 21.666 80.0238 21.5983Z" fill="#1F1F22"/>
<path d="M77.1482 51.6721C77.0363 53.3866 75.5557 54.6859 73.8412 54.574C72.1266 54.4622 70.8274 52.9816 70.9393 51.267C71.0511 49.5525 72.5317 48.2533 74.2462 48.3651C75.9608 48.477 77.26 49.9576 77.1482 51.6721Z" fill="#1F1F22"/>
</svg>
