<svg width="32" height="32" viewBox="0 0 32 32" fill="none" xmlns="http://www.w3.org/2000/svg">
<path d="M4.27783 15.6667C4.27783 11.3716 4.27783 9.22412 5.61212 7.88983C6.94641 6.55554 9.09392 6.55554 13.3889 6.55554H17.9445C22.2395 6.55554 24.387 6.55554 25.7213 7.88983C27.0556 9.22412 27.0556 11.3716 27.0556 15.6667V17.9444C27.0556 22.2394 27.0556 24.387 25.7213 25.7212C24.387 27.0555 22.2395 27.0555 17.9445 27.0555H13.3889C9.09392 27.0555 6.94641 27.0555 5.61212 25.7212C4.27783 24.387 4.27783 22.2394 4.27783 17.9444V15.6667Z" stroke="#4B4B4B" stroke-width="2.5"/>
<path d="M9.97217 6.5555V4.84717" stroke="#4B4B4B" stroke-width="2.5" stroke-linecap="round"/>
<path d="M21.3613 6.5555V4.84717" stroke="#4B4B4B" stroke-width="2.5" stroke-linecap="round"/>
<path d="M4.84717 12.25H26.4861" stroke="#4B4B4B" stroke-width="2.5" stroke-linecap="round"/>
</svg>
