<svg width="144" height="144" viewBox="0 0 144 144" fill="none" xmlns="http://www.w3.org/2000/svg">
<mask id="mask0_933_22219" style="mask-type:alpha" maskUnits="userSpaceOnUse" x="0" y="0" width="144" height="144">
<path d="M144 72C144 111.765 111.765 144 72 144C32.2355 144 0 111.765 0 72C0 32.2355 32.2355 0 72 0C111.765 0 144 32.2355 144 72Z" fill="#70ACDE"/>
</mask>
<g mask="url(#mask0_933_22219)">
<circle cx="71.8466" cy="72.1701" r="72.0002" fill="#70ACDE"/>
<circle cx="71.8466" cy="72.1701" r="72.0002" fill="url(#paint0_linear_933_22219)" fill-opacity="0.2"/>
<path d="M-0.935658 6.963C17.7293 -9.34212 44.3028 -9.46125 58.4179 6.69664C68.8729 18.6649 69.5596 36.2062 61.6279 51.1246C61.4859 51.3917 61.5272 51.7198 61.7262 51.9476C68.6959 59.926 66.8746 72.9205 57.6583 80.9716C48.4421 89.0226 35.3208 89.0815 28.3512 81.1032C26.5247 79.0123 23.9024 77.5458 21.1308 77.7084C9.54069 78.3884 -1.6069 74.4048 -9.17394 65.7426C-23.2889 49.5847 -19.6005 23.2681 -0.935658 6.963Z" fill="#99E587"/>
<path d="M105.425 19.5252C113.741 17.7359 121.739 22.1218 123.288 29.3214C124.837 36.521 119.351 43.8081 111.034 45.5975C109.783 45.8666 108.54 45.996 107.324 45.9972C104.599 45.9998 101.843 46.6298 99.2555 47.4856C95.3554 48.7758 91.1786 47.9607 88.6195 45.0313C85.047 40.9419 85.9804 34.2811 90.7044 30.1544C90.9069 29.9775 91.113 29.8082 91.3224 29.6465C93.0067 28.3454 94.593 26.855 95.9353 25.2033C98.1579 22.4684 101.472 20.3758 105.425 19.5252Z" fill="#99E587"/>
<path d="M91.7048 77.4725C101.652 75.3323 111.475 81.7725 113.645 91.8573C113.646 91.8638 113.65 91.8695 113.656 91.8729C117.382 94.0859 120.134 97.5875 121.061 101.897C122.488 108.533 119.187 115.201 113.257 119.028C113.229 119.046 113.232 119.089 113.263 119.102C113.295 119.116 113.314 119.15 113.284 119.167C111.819 120.036 81.0144 138.007 63.9404 124.102C60.8548 121.887 58.6085 118.708 57.7885 114.898C55.883 106.041 62.4021 97.1265 72.3493 94.9862C72.37 94.9817 72.3908 94.9773 72.4115 94.9729C75.0536 94.4128 77.2849 92.3451 78.1261 89.7786C80.107 83.7347 85.1038 78.8928 91.7048 77.4725Z" fill="#99E587"/>
<path d="M53.2512 46.0933C53.2512 48.0953 51.6283 49.7183 49.6262 49.7183C47.6242 49.7183 46.0012 48.0953 46.0012 46.0933C46.0012 44.0912 47.6242 42.4683 49.6262 42.4683C51.6283 42.4683 53.2512 44.0912 53.2512 46.0933Z" fill="#202020"/>
<path d="M77.4989 46.0933C77.4989 48.0953 75.8759 49.7183 73.8739 49.7183C71.8719 49.7183 70.2489 48.0953 70.2489 46.0933C70.2489 44.0912 71.8719 42.4683 73.8739 42.4683C75.8759 42.4683 77.4989 44.0912 77.4989 46.0933Z" fill="#202020"/>
<path d="M68.3501 54.2665C69.5977 53.6568 71.1178 54.1265 71.7976 55.3554C72.4773 56.5843 72.0675 58.1215 70.8879 58.8544L70.7712 58.9228C62.476 63.5114 54.507 60.9902 51.2175 58.9213L51.0644 58.8232L50.9531 58.7463C49.8307 57.9285 49.535 56.3651 50.3034 55.1896C51.0719 54.0141 52.6228 53.6575 53.8222 54.3576L53.937 54.4286L54.0339 54.4906C56.1288 55.8029 62.0223 57.763 68.2302 54.329L68.3501 54.2665Z" fill="#202020"/>
</g>
<defs>
<linearGradient id="paint0_linear_933_22219" x1="60.7759" y1="33.8415" x2="114.49" y2="127.641" gradientUnits="userSpaceOnUse">
<stop stop-color="white"/>
<stop offset="1" stop-color="#2887D7"/>
</linearGradient>
</defs>
</svg>
