<svg width="54" height="50" viewBox="0 0 54 50" fill="none" xmlns="http://www.w3.org/2000/svg">
<path d="M26.9995 1.4989C27.158 1.4989 27.3127 1.54927 27.4409 1.64246C27.569 1.73562 27.6645 1.8668 27.7134 2.01746V2.01843L33.0073 18.3153L33.2319 19.0057H51.5005C51.6606 19.0057 51.8169 19.0573 51.9458 19.1522C52.0747 19.2472 52.1699 19.3811 52.2173 19.5341C52.2647 19.687 52.2621 19.8516 52.2095 20.0028C52.17 20.1163 52.1034 20.2177 52.0171 20.2997L51.9243 20.3749L37.7007 30.12L37.0757 30.5477L37.3179 31.2645L42.8013 47.5106C42.8393 47.6233 42.8501 47.7436 42.8325 47.8612C42.815 47.9789 42.769 48.0907 42.6997 48.1874C42.6305 48.284 42.5398 48.3634 42.4341 48.4178C42.3283 48.4723 42.2103 48.5006 42.0913 48.5009H42.0894C41.9711 48.5013 41.8552 48.4733 41.7505 48.4208L41.6499 48.3602L27.5864 38.1649L26.9995 37.7391L26.4126 38.1649L12.3462 48.3632C12.2174 48.4566 12.0619 48.5063 11.9028 48.5057C11.7437 48.5052 11.5886 48.4536 11.4604 48.3593C11.3327 48.265 11.2377 48.1328 11.1899 47.9813C11.1422 47.8296 11.1439 47.6662 11.1948 47.5155L11.1958 47.5145L16.6812 31.2645L16.9233 30.5487L16.2993 30.12L2.08057 20.37V20.369L1.98779 20.2948C1.90161 20.213 1.83595 20.1112 1.79639 19.9979C1.74369 19.8469 1.74047 19.6821 1.7876 19.5292C1.83477 19.3765 1.92963 19.2424 2.05811 19.1473C2.15443 19.0761 2.26618 19.0298 2.3833 19.0106L2.50244 19.0009H20.7681L20.9927 18.3094L26.2866 2.01843V2.01746C26.3355 1.8668 26.431 1.7356 26.5591 1.64246C26.6872 1.54938 26.8412 1.49896 26.9995 1.4989Z" stroke="#112211" stroke-width="2"/>
</svg>
