<svg width="28" height="28" viewBox="0 0 28 28" fill="none" xmlns="http://www.w3.org/2000/svg">
<g clip-path="url(#clip0_12600_11544)">
<path fill-rule="evenodd" clip-rule="evenodd" d="M27.5006 14.3072C27.5017 13.381 27.4179 12.4565 27.2501 11.5449H14.2725V16.7669H21.6866C21.5327 17.592 21.2098 18.378 20.7374 19.0775C20.265 19.777 19.6528 20.3754 18.9379 20.8366V24.2246H23.3893C25.9939 21.8744 27.4967 18.4126 27.4967 14.3047L27.5006 14.3072Z" fill="#3E82F1"/>
<path fill-rule="evenodd" clip-rule="evenodd" d="M14.2754 27.4973C17.9948 27.4973 21.1134 26.2891 23.3922 24.2275L18.9409 20.8395C17.7067 21.6496 16.1287 22.1291 14.2754 22.1291C10.6871 22.1291 7.65036 19.7534 6.56802 16.5625H1.96484V20.0612C3.11153 22.2973 4.87009 24.177 7.04404 25.4901C9.21799 26.8033 11.7217 27.4982 14.2754 27.4973Z" fill="#32A753"/>
<path fill-rule="evenodd" clip-rule="evenodd" d="M6.56827 16.5633C5.99206 14.9003 5.99206 13.0973 6.56827 11.4342V7.93555H1.96509C1.00168 9.81728 0.5 11.8935 0.5 13.9988C0.5 16.1041 1.00168 18.1803 1.96509 20.062L6.56827 16.5633Z" fill="#F9BB00"/>
<path fill-rule="evenodd" clip-rule="evenodd" d="M14.2758 5.8682C16.299 5.8682 18.1146 6.54988 19.5421 7.8878L23.4925 4.01522C21.1072 1.83665 17.9887 0.500001 14.2784 0.500001C11.7246 0.49907 9.22092 1.194 7.04697 2.50716C4.87302 3.82032 3.11446 5.69998 1.96777 7.93612L6.57095 11.4348C7.65329 8.2439 10.6901 5.8682 14.2784 5.8682H14.2758Z" fill="#E74133"/>
</g>
<defs>
<clipPath id="clip0_12600_11544">
<rect width="27" height="27" fill="white" transform="translate(0.5 0.5)"/>
</clipPath>
</defs>
</svg>
